<svg width="264" height="60" viewBox="0 0 264 60" fill="none" xmlns="http://www.w3.org/2000/svg">
<path d="M181.588 13.7142H180.878V45.9875H181.588V13.7142Z" fill="black"/>
<path d="M193.524 33.5403H191.108V26.0869H195.3V26.8323H191.961V29.2173H193.524C194.945 29.2173 195.868 29.8136 195.868 31.3043V31.3788C195.797 32.795 194.945 33.5403 193.524 33.5403ZM193.453 32.8695C194.519 32.8695 194.945 32.3478 194.945 31.4534V31.3788C194.945 30.4844 194.447 29.9627 193.382 29.9627H191.89V32.8695H193.453Z" fill="black"/>
<path d="M196.649 32.0496C196.649 30.7825 197.928 30.3353 199.278 30.3353H200.06V29.9626C200.06 29.0682 199.775 28.6955 198.923 28.6955C198.212 28.6955 197.786 28.9937 197.715 29.6645H196.863C197.005 28.3974 197.928 27.9502 198.923 27.9502C199.917 27.9502 200.841 28.3974 200.841 29.8881V33.5403H199.988V32.8694C199.633 33.3912 199.136 33.6893 198.354 33.6893C197.36 33.6893 196.649 33.1676 196.649 32.0496ZM199.988 31.6769V31.0061H199.278C198.212 31.0061 197.502 31.3042 197.502 32.0496C197.502 32.6458 197.786 32.944 198.497 32.944C199.278 32.944 199.988 32.4968 199.988 31.6769Z" fill="black"/>
<path d="M205.602 31.1553H203.044V33.5404H202.191V28.0994H203.044V30.4099H205.602V28.0994H206.454V33.5404H205.602V31.1553Z" fill="black"/>
<path d="M208.656 30.7826V33.5404H207.804V28.0994H208.656V30.6335L210.788 28.0994H211.782L209.58 30.6335L211.995 33.5404H211.001L208.656 30.7826Z" fill="black"/>
<path d="M28.9146 13.7888C20.3893 13.7888 13.498 21.0186 13.498 29.9627C13.498 38.9068 20.3893 46.1366 28.9146 46.1366C37.4399 46.1366 44.3312 38.9068 44.3312 29.9627C44.3312 21.0186 37.4399 13.7888 28.9146 13.7888ZM26.7833 36.8199L25.6466 40.323C21.3839 38.8323 18.5422 34.5839 18.5422 29.8137C18.5422 25.0435 21.3839 20.8696 25.7176 19.3043L26.8543 22.8075C24.0126 23.7764 22.1654 26.6087 22.1654 29.7391C22.0233 33.0186 23.9415 35.8509 26.7833 36.8199ZM32.0406 40.3975L30.9749 36.8199C33.8877 35.8509 35.8059 33.0186 35.8059 29.8137C35.8059 26.6087 33.8877 23.8509 31.0459 22.882L32.1827 19.3043C36.5163 20.795 39.4292 25.0435 39.4292 29.8137C39.4292 34.7329 36.4453 38.9814 32.0406 40.3975Z" fill="white"/>
<path d="M170.079 32.8696L171.784 35.0311C170.008 36.969 167.806 37.4907 166.03 37.4907C164.324 37.4907 163.117 37.1926 162.051 36.6708C159.778 35.4783 158.641 33.0932 158.641 30.1864C158.641 25.7889 161.483 22.5093 165.674 22.5093C170.363 22.5093 172.637 26.1615 172.281 30.9317H161.625C161.696 32.1243 162.335 33.2423 163.259 33.8385C164.04 34.3603 164.964 34.5839 166.172 34.5839C167.521 34.5839 168.871 34.1367 170.079 32.8696ZM161.696 28.323H169.226C169.013 26.6087 167.664 25.118 165.532 25.118C163.33 25.118 161.98 26.7578 161.696 28.323ZM90.1544 37.0435H93.9907L87.952 29.6646L93.9197 22.733H90.1544L85.6075 28.2485H84.2577V22.733H81.3449V36.969H84.2577V31.3044H85.6075L90.1544 37.0435ZM102.658 25.3416C100.172 25.3416 98.5376 27.3541 98.5376 29.8882C98.5376 32.4224 100.172 34.4348 102.658 34.4348C105.145 34.4348 106.708 32.4969 106.708 29.8882C106.779 27.4286 105.216 25.3416 102.658 25.3416ZM103.155 22.4348C106.992 22.4348 109.834 25.5652 109.834 29.8882C109.834 34.1367 107.063 37.4162 103.155 37.4162C101.308 37.4162 99.8164 36.7454 98.7507 35.5528V43.0062H95.7669V22.8075H98.6797V24.5218C99.8164 23.1056 101.308 22.4348 103.155 22.4348ZM141.874 22.8075H129.726V25.6398H134.344V37.0435H137.328V25.6398H141.946V22.8075H141.874ZM79.2846 22.8075H67.065V25.6398H71.6829V37.0435H74.6667V25.6398H79.2846V22.8075ZM63.5128 29.9628C63.5128 27.2795 61.7367 25.3416 59.2502 25.3416C56.8347 25.3416 54.9875 27.2795 54.9875 29.9628C54.9875 32.646 56.7636 34.5839 59.2502 34.5839C61.6657 34.5839 63.5128 32.646 63.5128 29.9628ZM51.9326 29.9628C51.9326 25.7143 55.0586 22.5093 59.2502 22.5093C63.3707 22.5093 66.5677 25.7143 66.5677 29.9628C66.5677 34.2112 63.4418 37.4907 59.2502 37.4907C55.1296 37.4162 51.9326 34.2112 51.9326 29.9628ZM156.296 22.8075V37.0435H153.384V27.8758L146.279 37.0435H143.935V22.8075H146.848V31.9752L153.952 22.8075H156.296ZM127.666 37.0435H124.753V22.8075H127.666V37.0435ZM120.135 32.1988C120.135 30.9317 119.282 30.0373 118.146 30.0373H115.162V34.4348H118.146C119.282 34.4348 120.135 33.4659 120.135 32.1988ZM123.048 32.1988C123.048 35.0311 121.059 37.0435 118.217 37.0435H112.249V22.8075H115.162V27.4286H118.501C121.343 27.4286 123.048 29.3665 123.048 32.1988Z" fill="black"/>
</svg>
